<svg width="16" height="16" viewBox="0 0 16 16" fill="none" xmlns="http://www.w3.org/2000/svg">
  <path
    d="M13.3453 10.988L13.3453 9.32133H15.012M1.82134 5.84533C1.62758 5.65152 1.4846 5.41291 1.40507 5.15064C1.32553 4.88837 1.3119 4.61054 1.36539 4.34174C1.41887 4.07295 1.53781 3.82149 1.71167 3.60964C1.88554 3.39779 2.10896 3.23208 2.36216 3.1272C2.61536 3.02231 2.89052 2.98148 3.16326 3.00833C3.43601 3.03517 3.69792 3.12886 3.92581 3.2811C4.1537 3.43333 4.34054 3.63942 4.46976 3.8811C4.59899 4.12278 4.66663 4.3926 4.66668 4.66667M4.66668 4.66667L4.66668 11.3333M4.66668 4.66667C4.66668 4.22464 4.84227 3.80072 5.15483 3.48816C5.46739 3.17559 5.89132 3 6.33334 3C6.77537 3 7.19929 3.17559 7.51185 3.48816C7.82442 3.80072 8.00001 4.22464 8.00001 4.66667M8.00001 4.66667V11.3333M8.00001 4.66667C8.00001 4.22464 8.17561 3.80072 8.48817 3.48816C8.80073 3.17559 9.22465 3 9.66668 3C10.1087 3 10.5326 3.17559 10.8452 3.48816C11.1577 3.80072 11.3333 4.22464 11.3333 4.66667L11.3333 11.3333C11.3334 11.6074 11.401 11.8772 11.5303 12.1189C11.6595 12.3606 11.8463 12.5667 12.0742 12.7189C12.3021 12.8711 12.564 12.9648 12.8368 12.9917C13.1095 13.0185 13.3847 12.9777 13.6379 12.8728C13.8911 12.7679 14.1145 12.6022 14.2883 12.3904C14.4622 12.1785 14.5812 11.9271 14.6346 11.6583C14.6881 11.3895 14.6745 11.1116 14.595 10.8494C14.5154 10.5871 14.3724 10.3485 14.1787 10.1547L13.512 9.488"
    stroke="black"
    stroke-width="1"
    stroke-linecap="square"
    stroke-linejoin="round"
  />
</svg>
