<svg width="16" height="16" viewBox="0 0 16 16" fill="none" xmlns="http://www.w3.org/2000/svg">
  <path
    d="M1.5124 5.84533C1.30895 5.65152 1.15882 5.41291 1.07531 5.15064C0.991799 4.88837 0.977489 4.61054 1.03364 4.34174C1.0898 4.07295 1.21469 3.82149 1.39725 3.60964C1.57981 3.39779 1.8144 3.23208 2.08026 3.1272C2.34612 3.02231 2.63503 2.98148 2.92141 3.00833C3.2078 3.03517 3.48281 3.12886 3.72209 3.2811C3.96138 3.43333 4.15755 3.63942 4.29324 3.8811C4.42893 4.12278 4.49995 4.3926 4.5 4.66667M4.5 4.66667V11.3333M4.5 4.66667C4.5 4.22464 4.68437 3.80072 5.01256 3.48816C5.34075 3.17559 5.78587 3 6.25 3C6.71413 3 7.15925 3.17559 7.48744 3.48816C7.81563 3.80072 8 4.22464 8 4.66667M11.5 6.33333C11.5 5.89131 11.6844 5.46738 12.0126 5.15482C12.3408 4.84226 12.7859 4.66667 13.25 4.66667C13.7141 4.66667 14.1592 4.84226 14.4874 5.15482C14.8156 5.46738 15 5.89131 15 6.33333C15 7.65942 14.4469 8.93119 13.4623 9.86887C12.4777 10.8065 11.1424 11.3333 9.75 11.3333M8 4.66667C8 4.22464 8.18437 3.80072 8.51256 3.48816C8.84075 3.17559 9.28587 3 9.75 3C10.2141 3 10.6592 3.17559 10.9874 3.48816C11.3156 3.80072 11.5 4.22464 11.5 4.66667V11.3333C11.5 12.2533 12.284 13 13.25 13M8 4.66667L8 11.3333"
    stroke="currentColor"
    stroke-width="1"
    stroke-linejoin="round"
  />
</svg>
